<mxfile host="app.diagrams.net" modified="2022-03-10T05:17:33.210Z" agent="5.0 (Windows NT 10.0; Win64; x64) AppleWebKit/537.36 (KHTML, like Gecko) Chrome/99.0.4844.51 Safari/537.36" etag="ZRucTQgcM4-TsputG-jA" version="17.1.0" type="github">
  <diagram id="C5RBs43oDa-KdzZeNtuy" name="Page-1">
    <mxGraphModel dx="1778" dy="953" grid="1" gridSize="10" guides="1" tooltips="1" connect="1" arrows="1" fold="1" page="1" pageScale="1" pageWidth="827" pageHeight="1169" math="0" shadow="0">
      <root>
        <mxCell id="WIyWlLk6GJQsqaUBKTNV-0" />
        <mxCell id="WIyWlLk6GJQsqaUBKTNV-1" parent="WIyWlLk6GJQsqaUBKTNV-0" />
        <mxCell id="WIyWlLk6GJQsqaUBKTNV-2" value="" style="rounded=0;html=1;jettySize=auto;orthogonalLoop=1;fontSize=11;endArrow=block;endFill=0;endSize=8;strokeWidth=1;shadow=0;labelBackgroundColor=none;edgeStyle=orthogonalEdgeStyle;" parent="WIyWlLk6GJQsqaUBKTNV-1" source="WIyWlLk6GJQsqaUBKTNV-3" target="WIyWlLk6GJQsqaUBKTNV-6" edge="1">
          <mxGeometry relative="1" as="geometry" />
        </mxCell>
        <mxCell id="WIyWlLk6GJQsqaUBKTNV-3" value="导单服务" style="rounded=1;whiteSpace=wrap;html=1;fontSize=12;glass=0;strokeWidth=1;shadow=0;" parent="WIyWlLk6GJQsqaUBKTNV-1" vertex="1">
          <mxGeometry x="180" y="40" width="140" height="60" as="geometry" />
        </mxCell>
        <mxCell id="gSZBa4SCP4JB5kNh3QAv-3" value="" style="edgeStyle=orthogonalEdgeStyle;rounded=0;orthogonalLoop=1;jettySize=auto;html=1;" parent="WIyWlLk6GJQsqaUBKTNV-1" source="WIyWlLk6GJQsqaUBKTNV-6" target="gSZBa4SCP4JB5kNh3QAv-2" edge="1">
          <mxGeometry relative="1" as="geometry" />
        </mxCell>
        <mxCell id="WIyWlLk6GJQsqaUBKTNV-6" value="判断滞留" style="rhombus;whiteSpace=wrap;html=1;shadow=0;fontFamily=Helvetica;fontSize=12;align=center;strokeWidth=1;spacing=6;spacingTop=-4;" parent="WIyWlLk6GJQsqaUBKTNV-1" vertex="1">
          <mxGeometry x="200" y="200" width="100" height="80" as="geometry" />
        </mxCell>
        <mxCell id="gSZBa4SCP4JB5kNh3QAv-5" value="" style="edgeStyle=orthogonalEdgeStyle;rounded=0;orthogonalLoop=1;jettySize=auto;html=1;" parent="WIyWlLk6GJQsqaUBKTNV-1" source="gSZBa4SCP4JB5kNh3QAv-0" target="gSZBa4SCP4JB5kNh3QAv-4" edge="1">
          <mxGeometry relative="1" as="geometry" />
        </mxCell>
        <mxCell id="gSZBa4SCP4JB5kNh3QAv-0" value="定时任务&lt;br&gt;降舱" style="rounded=1;whiteSpace=wrap;html=1;" parent="WIyWlLk6GJQsqaUBKTNV-1" vertex="1">
          <mxGeometry x="580" y="40" width="120" height="60" as="geometry" />
        </mxCell>
        <mxCell id="gSZBa4SCP4JB5kNh3QAv-28" value="" style="edgeStyle=orthogonalEdgeStyle;rounded=0;orthogonalLoop=1;jettySize=auto;html=1;" parent="WIyWlLk6GJQsqaUBKTNV-1" source="gSZBa4SCP4JB5kNh3QAv-1" target="gSZBa4SCP4JB5kNh3QAv-27" edge="1">
          <mxGeometry relative="1" as="geometry" />
        </mxCell>
        <mxCell id="gSZBa4SCP4JB5kNh3QAv-1" value="支付服务" style="rounded=1;whiteSpace=wrap;html=1;" parent="WIyWlLk6GJQsqaUBKTNV-1" vertex="1">
          <mxGeometry x="827" y="40" width="120" height="60" as="geometry" />
        </mxCell>
        <mxCell id="gSZBa4SCP4JB5kNh3QAv-2" value="添加到刷低舱任务列表" style="whiteSpace=wrap;html=1;shadow=0;strokeWidth=1;spacing=6;spacingTop=-4;" parent="WIyWlLk6GJQsqaUBKTNV-1" vertex="1">
          <mxGeometry x="190" y="370" width="120" height="60" as="geometry" />
        </mxCell>
        <mxCell id="gSZBa4SCP4JB5kNh3QAv-11" value="" style="edgeStyle=orthogonalEdgeStyle;rounded=0;orthogonalLoop=1;jettySize=auto;html=1;" parent="WIyWlLk6GJQsqaUBKTNV-1" source="gSZBa4SCP4JB5kNh3QAv-4" target="gSZBa4SCP4JB5kNh3QAv-10" edge="1">
          <mxGeometry relative="1" as="geometry" />
        </mxCell>
        <mxCell id="gSZBa4SCP4JB5kNh3QAv-4" value="读取redis中刷低舱任务" style="whiteSpace=wrap;html=1;rounded=1;" parent="WIyWlLk6GJQsqaUBKTNV-1" vertex="1">
          <mxGeometry x="580" y="150" width="120" height="60" as="geometry" />
        </mxCell>
        <mxCell id="gSZBa4SCP4JB5kNh3QAv-10" value="判断当前时间，&lt;br&gt;判断支付状态，&lt;br&gt;判断支付时间，" style="rhombus;whiteSpace=wrap;html=1;rounded=1;" parent="WIyWlLk6GJQsqaUBKTNV-1" vertex="1">
          <mxGeometry x="520" y="280" width="240" height="110" as="geometry" />
        </mxCell>
        <mxCell id="gSZBa4SCP4JB5kNh3QAv-13" value="小于22：30且" style="text;html=1;strokeColor=none;fillColor=none;align=center;verticalAlign=middle;whiteSpace=wrap;rounded=0;" parent="WIyWlLk6GJQsqaUBKTNV-1" vertex="1">
          <mxGeometry x="540" y="410" width="200" height="100" as="geometry" />
        </mxCell>
        <mxCell id="gSZBa4SCP4JB5kNh3QAv-17" value="" style="edgeStyle=orthogonalEdgeStyle;rounded=0;orthogonalLoop=1;jettySize=auto;html=1;" parent="WIyWlLk6GJQsqaUBKTNV-1" source="gSZBa4SCP4JB5kNh3QAv-15" target="gSZBa4SCP4JB5kNh3QAv-16" edge="1">
          <mxGeometry relative="1" as="geometry" />
        </mxCell>
        <mxCell id="gSZBa4SCP4JB5kNh3QAv-15" value="定时任务&lt;br&gt;退票" style="rounded=1;whiteSpace=wrap;html=1;" parent="WIyWlLk6GJQsqaUBKTNV-1" vertex="1">
          <mxGeometry x="1121" y="30" width="120" height="60" as="geometry" />
        </mxCell>
        <mxCell id="gSZBa4SCP4JB5kNh3QAv-19" value="" style="edgeStyle=orthogonalEdgeStyle;rounded=0;orthogonalLoop=1;jettySize=auto;html=1;" parent="WIyWlLk6GJQsqaUBKTNV-1" source="gSZBa4SCP4JB5kNh3QAv-16" target="gSZBa4SCP4JB5kNh3QAv-18" edge="1">
          <mxGeometry relative="1" as="geometry" />
        </mxCell>
        <mxCell id="gSZBa4SCP4JB5kNh3QAv-16" value="redis存储任务" style="rounded=1;whiteSpace=wrap;html=1;" parent="WIyWlLk6GJQsqaUBKTNV-1" vertex="1">
          <mxGeometry x="1121" y="140" width="120" height="60" as="geometry" />
        </mxCell>
        <mxCell id="gSZBa4SCP4JB5kNh3QAv-18" value="mq 发送退票消息" style="rounded=1;whiteSpace=wrap;html=1;" parent="WIyWlLk6GJQsqaUBKTNV-1" vertex="1">
          <mxGeometry x="1121" y="280" width="120" height="60" as="geometry" />
        </mxCell>
        <mxCell id="gSZBa4SCP4JB5kNh3QAv-22" value="" style="edgeStyle=orthogonalEdgeStyle;rounded=0;orthogonalLoop=1;jettySize=auto;html=1;" parent="WIyWlLk6GJQsqaUBKTNV-1" source="gSZBa4SCP4JB5kNh3QAv-20" target="gSZBa4SCP4JB5kNh3QAv-21" edge="1">
          <mxGeometry relative="1" as="geometry" />
        </mxCell>
        <mxCell id="gSZBa4SCP4JB5kNh3QAv-20" value="ticketV2" style="rounded=1;whiteSpace=wrap;html=1;" parent="WIyWlLk6GJQsqaUBKTNV-1" vertex="1">
          <mxGeometry x="1320" y="30" width="120" height="60" as="geometry" />
        </mxCell>
        <mxCell id="gSZBa4SCP4JB5kNh3QAv-24" value="" style="edgeStyle=orthogonalEdgeStyle;rounded=0;orthogonalLoop=1;jettySize=auto;html=1;" parent="WIyWlLk6GJQsqaUBKTNV-1" source="gSZBa4SCP4JB5kNh3QAv-21" target="gSZBa4SCP4JB5kNh3QAv-23" edge="1">
          <mxGeometry relative="1" as="geometry" />
        </mxCell>
        <mxCell id="gSZBa4SCP4JB5kNh3QAv-21" value="退票监听" style="rounded=1;whiteSpace=wrap;html=1;" parent="WIyWlLk6GJQsqaUBKTNV-1" vertex="1">
          <mxGeometry x="1320" y="170" width="120" height="60" as="geometry" />
        </mxCell>
        <mxCell id="gSZBa4SCP4JB5kNh3QAv-26" value="" style="edgeStyle=orthogonalEdgeStyle;rounded=0;orthogonalLoop=1;jettySize=auto;html=1;" parent="WIyWlLk6GJQsqaUBKTNV-1" source="gSZBa4SCP4JB5kNh3QAv-23" target="gSZBa4SCP4JB5kNh3QAv-25" edge="1">
          <mxGeometry relative="1" as="geometry" />
        </mxCell>
        <mxCell id="gSZBa4SCP4JB5kNh3QAv-23" value="根据不同航司，执行退票" style="rounded=1;whiteSpace=wrap;html=1;" parent="WIyWlLk6GJQsqaUBKTNV-1" vertex="1">
          <mxGeometry x="1320" y="310" width="120" height="60" as="geometry" />
        </mxCell>
        <mxCell id="gSZBa4SCP4JB5kNh3QAv-25" value="退票成功，删除redis中任务&lt;br&gt;" style="rounded=1;whiteSpace=wrap;html=1;" parent="WIyWlLk6GJQsqaUBKTNV-1" vertex="1">
          <mxGeometry x="1320" y="450" width="120" height="60" as="geometry" />
        </mxCell>
        <mxCell id="gSZBa4SCP4JB5kNh3QAv-30" value="" style="edgeStyle=orthogonalEdgeStyle;rounded=0;orthogonalLoop=1;jettySize=auto;html=1;" parent="WIyWlLk6GJQsqaUBKTNV-1" source="gSZBa4SCP4JB5kNh3QAv-27" edge="1">
          <mxGeometry relative="1" as="geometry">
            <mxPoint x="970" y="380" as="targetPoint" />
          </mxGeometry>
        </mxCell>
        <mxCell id="gSZBa4SCP4JB5kNh3QAv-27" value="判断TW刷低舱&lt;br&gt;" style="whiteSpace=wrap;html=1;rounded=1;" parent="WIyWlLk6GJQsqaUBKTNV-1" vertex="1">
          <mxGeometry x="827" y="180" width="120" height="60" as="geometry" />
        </mxCell>
        <mxCell id="gSZBa4SCP4JB5kNh3QAv-50" style="edgeStyle=orthogonalEdgeStyle;rounded=0;orthogonalLoop=1;jettySize=auto;html=1;entryX=0.5;entryY=0;entryDx=0;entryDy=0;" parent="WIyWlLk6GJQsqaUBKTNV-1" source="gSZBa4SCP4JB5kNh3QAv-29" target="gSZBa4SCP4JB5kNh3QAv-49" edge="1">
          <mxGeometry relative="1" as="geometry" />
        </mxCell>
        <mxCell id="gSZBa4SCP4JB5kNh3QAv-52" value="支付" style="edgeLabel;html=1;align=center;verticalAlign=middle;resizable=0;points=[];" parent="gSZBa4SCP4JB5kNh3QAv-50" vertex="1" connectable="0">
          <mxGeometry x="-0.1112" y="3" relative="1" as="geometry">
            <mxPoint as="offset" />
          </mxGeometry>
        </mxCell>
        <mxCell id="gSZBa4SCP4JB5kNh3QAv-53" style="edgeStyle=orthogonalEdgeStyle;rounded=0;orthogonalLoop=1;jettySize=auto;html=1;exitX=1;exitY=0.5;exitDx=0;exitDy=0;" parent="WIyWlLk6GJQsqaUBKTNV-1" source="gSZBa4SCP4JB5kNh3QAv-29" target="gSZBa4SCP4JB5kNh3QAv-36" edge="1">
          <mxGeometry relative="1" as="geometry">
            <mxPoint x="560" y="1020" as="targetPoint" />
          </mxGeometry>
        </mxCell>
        <mxCell id="gSZBa4SCP4JB5kNh3QAv-54" value="未支付" style="edgeLabel;html=1;align=center;verticalAlign=middle;resizable=0;points=[];" parent="gSZBa4SCP4JB5kNh3QAv-53" vertex="1" connectable="0">
          <mxGeometry x="-0.0398" y="-2" relative="1" as="geometry">
            <mxPoint as="offset" />
          </mxGeometry>
        </mxCell>
        <mxCell id="gSZBa4SCP4JB5kNh3QAv-55" value="直接支付" style="edgeLabel;html=1;align=center;verticalAlign=middle;resizable=0;points=[];" parent="gSZBa4SCP4JB5kNh3QAv-53" vertex="1" connectable="0">
          <mxGeometry x="0.4869" y="-2" relative="1" as="geometry">
            <mxPoint y="1" as="offset" />
          </mxGeometry>
        </mxCell>
        <mxCell id="gSZBa4SCP4JB5kNh3QAv-29" value="判断是否支付" style="rhombus;whiteSpace=wrap;html=1;rounded=1;" parent="WIyWlLk6GJQsqaUBKTNV-1" vertex="1">
          <mxGeometry x="330" y="850" width="183" height="120" as="geometry" />
        </mxCell>
        <mxCell id="gSZBa4SCP4JB5kNh3QAv-51" style="edgeStyle=orthogonalEdgeStyle;rounded=0;orthogonalLoop=1;jettySize=auto;html=1;entryX=0.5;entryY=0;entryDx=0;entryDy=0;" parent="WIyWlLk6GJQsqaUBKTNV-1" source="gSZBa4SCP4JB5kNh3QAv-31" target="gSZBa4SCP4JB5kNh3QAv-41" edge="1">
          <mxGeometry relative="1" as="geometry" />
        </mxCell>
        <mxCell id="gSZBa4SCP4JB5kNh3QAv-31" value="判断是否支付" style="rhombus;whiteSpace=wrap;html=1;rounded=1;" parent="WIyWlLk6GJQsqaUBKTNV-1" vertex="1">
          <mxGeometry x="900" y="800" width="183" height="120" as="geometry" />
        </mxCell>
        <mxCell id="gSZBa4SCP4JB5kNh3QAv-33" value="判断价格" style="rhombus;whiteSpace=wrap;html=1;rounded=1;" parent="WIyWlLk6GJQsqaUBKTNV-1" vertex="1">
          <mxGeometry x="1050" y="970" width="183" height="120" as="geometry" />
        </mxCell>
        <mxCell id="gSZBa4SCP4JB5kNh3QAv-57" value="小于原价" style="edgeStyle=orthogonalEdgeStyle;rounded=0;orthogonalLoop=1;jettySize=auto;html=1;" parent="WIyWlLk6GJQsqaUBKTNV-1" source="gSZBa4SCP4JB5kNh3QAv-36" target="gSZBa4SCP4JB5kNh3QAv-56" edge="1">
          <mxGeometry relative="1" as="geometry" />
        </mxCell>
        <mxCell id="gSZBa4SCP4JB5kNh3QAv-60" value="大于原价" style="edgeStyle=orthogonalEdgeStyle;rounded=0;orthogonalLoop=1;jettySize=auto;html=1;" parent="WIyWlLk6GJQsqaUBKTNV-1" source="gSZBa4SCP4JB5kNh3QAv-36" target="gSZBa4SCP4JB5kNh3QAv-59" edge="1">
          <mxGeometry relative="1" as="geometry" />
        </mxCell>
        <mxCell id="gSZBa4SCP4JB5kNh3QAv-62" value="" style="edgeStyle=orthogonalEdgeStyle;rounded=0;orthogonalLoop=1;jettySize=auto;html=1;" parent="WIyWlLk6GJQsqaUBKTNV-1" source="gSZBa4SCP4JB5kNh3QAv-36" target="gSZBa4SCP4JB5kNh3QAv-61" edge="1">
          <mxGeometry relative="1" as="geometry" />
        </mxCell>
        <mxCell id="V34Z-jl5als5_vUv9P9E-0" value="等于原价" style="edgeLabel;html=1;align=center;verticalAlign=middle;resizable=0;points=[];" vertex="1" connectable="0" parent="gSZBa4SCP4JB5kNh3QAv-62">
          <mxGeometry x="0.3338" relative="1" as="geometry">
            <mxPoint as="offset" />
          </mxGeometry>
        </mxCell>
        <mxCell id="gSZBa4SCP4JB5kNh3QAv-36" value="判断价格" style="rhombus;whiteSpace=wrap;html=1;rounded=1;" parent="WIyWlLk6GJQsqaUBKTNV-1" vertex="1">
          <mxGeometry x="520" y="1090" width="153" height="80" as="geometry" />
        </mxCell>
        <mxCell id="gSZBa4SCP4JB5kNh3QAv-40" value="小于23：00" style="edgeStyle=orthogonalEdgeStyle;rounded=0;orthogonalLoop=1;jettySize=auto;html=1;" parent="WIyWlLk6GJQsqaUBKTNV-1" source="gSZBa4SCP4JB5kNh3QAv-38" target="gSZBa4SCP4JB5kNh3QAv-29" edge="1">
          <mxGeometry x="-0.1909" relative="1" as="geometry">
            <mxPoint as="offset" />
          </mxGeometry>
        </mxCell>
        <mxCell id="gSZBa4SCP4JB5kNh3QAv-42" value="&lt;span style=&quot;color: rgb(0 , 0 , 0) ; font-size: 11px ; font-style: normal ; font-weight: 400 ; letter-spacing: normal ; text-align: center ; text-indent: 0px ; text-transform: none ; word-spacing: 0px ; background-color: rgb(255 , 255 , 255) ; font-family: &amp;#34;helvetica&amp;#34; ; display: inline ; float: none&quot;&gt;大于23：00&lt;/span&gt;&lt;br style=&quot;color: rgb(0 , 0 , 0) ; font-size: 11px ; font-style: normal ; font-weight: 400 ; letter-spacing: normal ; text-align: center ; text-indent: 0px ; text-transform: none ; word-spacing: 0px ; font-family: &amp;#34;helvetica&amp;#34;&quot;&gt;&lt;span style=&quot;color: rgb(0 , 0 , 0) ; font-size: 11px ; font-style: normal ; font-weight: 400 ; letter-spacing: normal ; text-align: center ; text-indent: 0px ; text-transform: none ; word-spacing: 0px ; background-color: rgb(255 , 255 , 255) ; font-family: &amp;#34;helvetica&amp;#34; ; display: inline ; float: none&quot;&gt;小于23：59&lt;/span&gt;" style="edgeStyle=orthogonalEdgeStyle;rounded=0;orthogonalLoop=1;jettySize=auto;html=1;exitX=1;exitY=0.5;exitDx=0;exitDy=0;entryX=0.5;entryY=0;entryDx=0;entryDy=0;" parent="WIyWlLk6GJQsqaUBKTNV-1" source="gSZBa4SCP4JB5kNh3QAv-38" target="gSZBa4SCP4JB5kNh3QAv-31" edge="1">
          <mxGeometry x="-0.3262" relative="1" as="geometry">
            <mxPoint x="1020" y="745" as="targetPoint" />
            <Array as="points">
              <mxPoint x="992" y="745" />
            </Array>
            <mxPoint as="offset" />
          </mxGeometry>
        </mxCell>
        <mxCell id="gSZBa4SCP4JB5kNh3QAv-38" value="判断当前时间&amp;nbsp;" style="rhombus;whiteSpace=wrap;html=1;" parent="WIyWlLk6GJQsqaUBKTNV-1" vertex="1">
          <mxGeometry x="624" y="700" width="146" height="90" as="geometry" />
        </mxCell>
        <mxCell id="gSZBa4SCP4JB5kNh3QAv-41" value="判断座位数" style="rhombus;whiteSpace=wrap;html=1;" parent="WIyWlLk6GJQsqaUBKTNV-1" vertex="1">
          <mxGeometry x="760" y="960" width="130" height="120" as="geometry" />
        </mxCell>
        <mxCell id="gSZBa4SCP4JB5kNh3QAv-44" value="&lt;h1&gt;废票规则&lt;/h1&gt;&lt;div&gt;当天退票可以全退&lt;/div&gt;&lt;div&gt;第二天退票什么规则？&lt;/div&gt;&lt;div&gt;提前20-30分钟废，避免网络原因废票失败&lt;/div&gt;&lt;div&gt;&lt;br&gt;&lt;/div&gt;" style="text;html=1;strokeColor=none;fillColor=none;spacing=5;spacingTop=-20;whiteSpace=wrap;overflow=hidden;rounded=0;" parent="WIyWlLk6GJQsqaUBKTNV-1" vertex="1">
          <mxGeometry x="20" y="590" width="260" height="160" as="geometry" />
        </mxCell>
        <mxCell id="V34Z-jl5als5_vUv9P9E-7" value="大于等于" style="edgeStyle=orthogonalEdgeStyle;rounded=0;orthogonalLoop=1;jettySize=auto;html=1;entryX=0.5;entryY=0;entryDx=0;entryDy=0;exitX=1;exitY=0.5;exitDx=0;exitDy=0;" edge="1" parent="WIyWlLk6GJQsqaUBKTNV-1" source="gSZBa4SCP4JB5kNh3QAv-49" target="V34Z-jl5als5_vUv9P9E-5">
          <mxGeometry relative="1" as="geometry" />
        </mxCell>
        <mxCell id="gSZBa4SCP4JB5kNh3QAv-49" value="判断价格" style="rhombus;whiteSpace=wrap;html=1;" parent="WIyWlLk6GJQsqaUBKTNV-1" vertex="1">
          <mxGeometry x="170" y="1100" width="130" height="80" as="geometry" />
        </mxCell>
        <mxCell id="gSZBa4SCP4JB5kNh3QAv-56" value="刷仓成功&lt;br&gt;直接回填" style="whiteSpace=wrap;html=1;rounded=1;fillColor=#d5e8d4;strokeColor=#82b366;" parent="WIyWlLk6GJQsqaUBKTNV-1" vertex="1">
          <mxGeometry x="401.5" y="1400" width="120" height="60" as="geometry" />
        </mxCell>
        <mxCell id="gSZBa4SCP4JB5kNh3QAv-59" value="支付失败" style="whiteSpace=wrap;html=1;rounded=1;fillColor=#f8cecc;strokeColor=#b85450;" parent="WIyWlLk6GJQsqaUBKTNV-1" vertex="1">
          <mxGeometry x="673" y="1400" width="120" height="60" as="geometry" />
        </mxCell>
        <mxCell id="gSZBa4SCP4JB5kNh3QAv-61" value="首次支付成功&lt;br&gt;不回填" style="whiteSpace=wrap;html=1;rounded=1;fillColor=#dae8fc;strokeColor=#6c8ebf;" parent="WIyWlLk6GJQsqaUBKTNV-1" vertex="1">
          <mxGeometry x="536.5" y="1400" width="120" height="60" as="geometry" />
        </mxCell>
        <mxCell id="V34Z-jl5als5_vUv9P9E-3" value="小于原价" style="edgeStyle=orthogonalEdgeStyle;rounded=0;orthogonalLoop=1;jettySize=auto;html=1;exitX=0;exitY=0.5;exitDx=0;exitDy=0;" edge="1" parent="WIyWlLk6GJQsqaUBKTNV-1" target="V34Z-jl5als5_vUv9P9E-4" source="gSZBa4SCP4JB5kNh3QAv-49">
          <mxGeometry relative="1" as="geometry">
            <mxPoint x="270" y="1169" as="sourcePoint" />
          </mxGeometry>
        </mxCell>
        <mxCell id="V34Z-jl5als5_vUv9P9E-4" value="刷仓成功&lt;br&gt;直接回填" style="whiteSpace=wrap;html=1;rounded=1;fillColor=#d5e8d4;strokeColor=#82b366;" vertex="1" parent="WIyWlLk6GJQsqaUBKTNV-1">
          <mxGeometry x="70" y="1400" width="120" height="60" as="geometry" />
        </mxCell>
        <mxCell id="V34Z-jl5als5_vUv9P9E-5" value="刷舱失败" style="whiteSpace=wrap;html=1;rounded=1;fillColor=#f8cecc;strokeColor=#b85450;" vertex="1" parent="WIyWlLk6GJQsqaUBKTNV-1">
          <mxGeometry x="270" y="1400" width="120" height="60" as="geometry" />
        </mxCell>
        <mxCell id="V34Z-jl5als5_vUv9P9E-11" value="小于22：30" style="edgeStyle=orthogonalEdgeStyle;rounded=0;orthogonalLoop=1;jettySize=auto;html=1;" edge="1" parent="WIyWlLk6GJQsqaUBKTNV-1" source="V34Z-jl5als5_vUv9P9E-8" target="V34Z-jl5als5_vUv9P9E-10">
          <mxGeometry relative="1" as="geometry" />
        </mxCell>
        <mxCell id="V34Z-jl5als5_vUv9P9E-20" value="" style="edgeStyle=orthogonalEdgeStyle;rounded=0;orthogonalLoop=1;jettySize=auto;html=1;" edge="1" parent="WIyWlLk6GJQsqaUBKTNV-1" source="V34Z-jl5als5_vUv9P9E-8" target="V34Z-jl5als5_vUv9P9E-19">
          <mxGeometry relative="1" as="geometry" />
        </mxCell>
        <mxCell id="V34Z-jl5als5_vUv9P9E-21" value="大于等于22：30" style="edgeLabel;html=1;align=center;verticalAlign=middle;resizable=0;points=[];" vertex="1" connectable="0" parent="V34Z-jl5als5_vUv9P9E-20">
          <mxGeometry x="-0.2955" y="1" relative="1" as="geometry">
            <mxPoint as="offset" />
          </mxGeometry>
        </mxCell>
        <mxCell id="V34Z-jl5als5_vUv9P9E-8" value="判断当前时间" style="rhombus;whiteSpace=wrap;html=1;" vertex="1" parent="WIyWlLk6GJQsqaUBKTNV-1">
          <mxGeometry x="814" y="1820" width="80" height="80" as="geometry" />
        </mxCell>
        <mxCell id="V34Z-jl5als5_vUv9P9E-9" value="&lt;h1&gt;只刷当天，不延续&lt;/h1&gt;&lt;p&gt;1、大于22：30,直接支付，不刷仓&lt;/p&gt;&lt;p&gt;2、22：00之前&amp;nbsp; 刷低舱&lt;/p&gt;&lt;p&gt;3、&lt;/p&gt;" style="text;html=1;strokeColor=none;fillColor=none;spacing=5;spacingTop=-20;whiteSpace=wrap;overflow=hidden;rounded=0;" vertex="1" parent="WIyWlLk6GJQsqaUBKTNV-1">
          <mxGeometry x="40" y="1760" width="270" height="120" as="geometry" />
        </mxCell>
        <mxCell id="V34Z-jl5als5_vUv9P9E-18" value="" style="edgeStyle=orthogonalEdgeStyle;rounded=0;orthogonalLoop=1;jettySize=auto;html=1;" edge="1" parent="WIyWlLk6GJQsqaUBKTNV-1" source="V34Z-jl5als5_vUv9P9E-10" target="V34Z-jl5als5_vUv9P9E-17">
          <mxGeometry relative="1" as="geometry" />
        </mxCell>
        <mxCell id="V34Z-jl5als5_vUv9P9E-22" value="支付" style="edgeLabel;html=1;align=center;verticalAlign=middle;resizable=0;points=[];" vertex="1" connectable="0" parent="V34Z-jl5als5_vUv9P9E-18">
          <mxGeometry x="-0.0727" y="-2" relative="1" as="geometry">
            <mxPoint x="1" as="offset" />
          </mxGeometry>
        </mxCell>
        <mxCell id="V34Z-jl5als5_vUv9P9E-24" value="未支付" style="edgeStyle=orthogonalEdgeStyle;rounded=0;orthogonalLoop=1;jettySize=auto;html=1;" edge="1" parent="WIyWlLk6GJQsqaUBKTNV-1" source="V34Z-jl5als5_vUv9P9E-10" target="V34Z-jl5als5_vUv9P9E-39">
          <mxGeometry relative="1" as="geometry">
            <mxPoint x="774" y="2100" as="targetPoint" />
          </mxGeometry>
        </mxCell>
        <mxCell id="V34Z-jl5als5_vUv9P9E-10" value="判断是否支付" style="rhombus;whiteSpace=wrap;html=1;" vertex="1" parent="WIyWlLk6GJQsqaUBKTNV-1">
          <mxGeometry x="520.5" y="1970" width="80" height="80" as="geometry" />
        </mxCell>
        <mxCell id="V34Z-jl5als5_vUv9P9E-26" value="大于等于原价" style="edgeStyle=orthogonalEdgeStyle;rounded=0;orthogonalLoop=1;jettySize=auto;html=1;entryX=0.558;entryY=-0.033;entryDx=0;entryDy=0;entryPerimeter=0;" edge="1" parent="WIyWlLk6GJQsqaUBKTNV-1" source="V34Z-jl5als5_vUv9P9E-17" target="V34Z-jl5als5_vUv9P9E-49">
          <mxGeometry relative="1" as="geometry">
            <mxPoint x="294" y="2280" as="targetPoint" />
          </mxGeometry>
        </mxCell>
        <mxCell id="V34Z-jl5als5_vUv9P9E-30" value="小于原价" style="edgeStyle=orthogonalEdgeStyle;rounded=0;orthogonalLoop=1;jettySize=auto;html=1;entryX=0.5;entryY=0;entryDx=0;entryDy=0;" edge="1" parent="WIyWlLk6GJQsqaUBKTNV-1" source="V34Z-jl5als5_vUv9P9E-17" target="V34Z-jl5als5_vUv9P9E-46">
          <mxGeometry relative="1" as="geometry">
            <mxPoint x="519.8" y="2260" as="targetPoint" />
          </mxGeometry>
        </mxCell>
        <mxCell id="V34Z-jl5als5_vUv9P9E-17" value="判断价格" style="rhombus;whiteSpace=wrap;html=1;" vertex="1" parent="WIyWlLk6GJQsqaUBKTNV-1">
          <mxGeometry x="385.5" y="2110" width="80" height="80" as="geometry" />
        </mxCell>
        <mxCell id="V34Z-jl5als5_vUv9P9E-51" value="支付" style="edgeStyle=orthogonalEdgeStyle;rounded=0;orthogonalLoop=1;jettySize=auto;html=1;" edge="1" parent="WIyWlLk6GJQsqaUBKTNV-1" source="V34Z-jl5als5_vUv9P9E-19" target="V34Z-jl5als5_vUv9P9E-58">
          <mxGeometry relative="1" as="geometry">
            <mxPoint x="1174" y="2080" as="targetPoint" />
          </mxGeometry>
        </mxCell>
        <mxCell id="V34Z-jl5als5_vUv9P9E-55" value="未支付" style="edgeStyle=orthogonalEdgeStyle;rounded=0;orthogonalLoop=1;jettySize=auto;html=1;entryX=0.5;entryY=0;entryDx=0;entryDy=0;" edge="1" parent="WIyWlLk6GJQsqaUBKTNV-1" source="V34Z-jl5als5_vUv9P9E-19" target="V34Z-jl5als5_vUv9P9E-73">
          <mxGeometry relative="1" as="geometry">
            <mxPoint x="1464" y="2230" as="targetPoint" />
            <Array as="points">
              <mxPoint x="1504" y="2000" />
            </Array>
          </mxGeometry>
        </mxCell>
        <mxCell id="V34Z-jl5als5_vUv9P9E-19" value="判断是否支付" style="rhombus;whiteSpace=wrap;html=1;" vertex="1" parent="WIyWlLk6GJQsqaUBKTNV-1">
          <mxGeometry x="1234" y="1960" width="80" height="80" as="geometry" />
        </mxCell>
        <mxCell id="V34Z-jl5als5_vUv9P9E-32" value="" style="edgeStyle=orthogonalEdgeStyle;rounded=0;orthogonalLoop=1;jettySize=auto;html=1;exitX=0.5;exitY=1;exitDx=0;exitDy=0;" edge="1" parent="WIyWlLk6GJQsqaUBKTNV-1" source="V34Z-jl5als5_vUv9P9E-46" target="V34Z-jl5als5_vUv9P9E-31">
          <mxGeometry relative="1" as="geometry">
            <mxPoint x="519.8" y="2320" as="sourcePoint" />
          </mxGeometry>
        </mxCell>
        <mxCell id="V34Z-jl5als5_vUv9P9E-34" value="" style="edgeStyle=orthogonalEdgeStyle;rounded=0;orthogonalLoop=1;jettySize=auto;html=1;" edge="1" parent="WIyWlLk6GJQsqaUBKTNV-1" source="V34Z-jl5als5_vUv9P9E-31" target="V34Z-jl5als5_vUv9P9E-33">
          <mxGeometry relative="1" as="geometry" />
        </mxCell>
        <mxCell id="V34Z-jl5als5_vUv9P9E-31" value="支付" style="whiteSpace=wrap;html=1;" vertex="1" parent="WIyWlLk6GJQsqaUBKTNV-1">
          <mxGeometry x="477" y="2390" width="120" height="60" as="geometry" />
        </mxCell>
        <mxCell id="V34Z-jl5als5_vUv9P9E-33" value="退票" style="whiteSpace=wrap;html=1;" vertex="1" parent="WIyWlLk6GJQsqaUBKTNV-1">
          <mxGeometry x="477" y="2498" width="120" height="60" as="geometry" />
        </mxCell>
        <mxCell id="V34Z-jl5als5_vUv9P9E-36" value="大于原价" style="edgeStyle=orthogonalEdgeStyle;rounded=0;orthogonalLoop=1;jettySize=auto;html=1;" edge="1" parent="WIyWlLk6GJQsqaUBKTNV-1" source="V34Z-jl5als5_vUv9P9E-39" target="V34Z-jl5als5_vUv9P9E-40">
          <mxGeometry relative="1" as="geometry" />
        </mxCell>
        <mxCell id="V34Z-jl5als5_vUv9P9E-37" value="" style="edgeStyle=orthogonalEdgeStyle;rounded=0;orthogonalLoop=1;jettySize=auto;html=1;" edge="1" parent="WIyWlLk6GJQsqaUBKTNV-1" source="V34Z-jl5als5_vUv9P9E-39" target="V34Z-jl5als5_vUv9P9E-41">
          <mxGeometry relative="1" as="geometry" />
        </mxCell>
        <mxCell id="V34Z-jl5als5_vUv9P9E-38" value="等于原价" style="edgeLabel;html=1;align=center;verticalAlign=middle;resizable=0;points=[];" vertex="1" connectable="0" parent="V34Z-jl5als5_vUv9P9E-37">
          <mxGeometry x="0.3338" relative="1" as="geometry">
            <mxPoint y="-23" as="offset" />
          </mxGeometry>
        </mxCell>
        <mxCell id="V34Z-jl5als5_vUv9P9E-39" value="判断价格" style="rhombus;whiteSpace=wrap;html=1;rounded=1;" vertex="1" parent="WIyWlLk6GJQsqaUBKTNV-1">
          <mxGeometry x="774" y="2100" width="100" height="80" as="geometry" />
        </mxCell>
        <mxCell id="V34Z-jl5als5_vUv9P9E-40" value="支付失败" style="whiteSpace=wrap;html=1;rounded=1;fillColor=#f8cecc;strokeColor=#b85450;" vertex="1" parent="WIyWlLk6GJQsqaUBKTNV-1">
          <mxGeometry x="894" y="2260" width="120" height="60" as="geometry" />
        </mxCell>
        <mxCell id="V34Z-jl5als5_vUv9P9E-41" value="首次支付成功&lt;br&gt;不回填" style="whiteSpace=wrap;html=1;rounded=1;fillColor=#dae8fc;strokeColor=#6c8ebf;" vertex="1" parent="WIyWlLk6GJQsqaUBKTNV-1">
          <mxGeometry x="764" y="2260" width="120" height="60" as="geometry" />
        </mxCell>
        <mxCell id="V34Z-jl5als5_vUv9P9E-42" value="刷仓成功&lt;br&gt;直接回填" style="whiteSpace=wrap;html=1;rounded=1;fillColor=#d5e8d4;strokeColor=#82b366;" vertex="1" parent="WIyWlLk6GJQsqaUBKTNV-1">
          <mxGeometry x="637" y="2260" width="120" height="60" as="geometry" />
        </mxCell>
        <mxCell id="V34Z-jl5als5_vUv9P9E-43" value="小于原价" style="edgeStyle=orthogonalEdgeStyle;rounded=0;orthogonalLoop=1;jettySize=auto;html=1;endArrow=none;" edge="1" parent="WIyWlLk6GJQsqaUBKTNV-1" source="V34Z-jl5als5_vUv9P9E-39" target="V34Z-jl5als5_vUv9P9E-42">
          <mxGeometry relative="1" as="geometry">
            <mxPoint x="764" y="2510" as="targetPoint" />
            <mxPoint x="740.5" y="2230" as="sourcePoint" />
          </mxGeometry>
        </mxCell>
        <mxCell id="V34Z-jl5als5_vUv9P9E-46" value="刷仓成功&lt;br&gt;直接回填" style="whiteSpace=wrap;html=1;rounded=1;fillColor=#d5e8d4;strokeColor=#82b366;" vertex="1" parent="WIyWlLk6GJQsqaUBKTNV-1">
          <mxGeometry x="477" y="2260" width="120" height="60" as="geometry" />
        </mxCell>
        <mxCell id="V34Z-jl5als5_vUv9P9E-49" value="刷仓失败&lt;br&gt;继续刷仓" style="whiteSpace=wrap;html=1;rounded=1;fillColor=#f8cecc;strokeColor=#b85450;" vertex="1" parent="WIyWlLk6GJQsqaUBKTNV-1">
          <mxGeometry x="239" y="2260" width="120" height="60" as="geometry" />
        </mxCell>
        <mxCell id="V34Z-jl5als5_vUv9P9E-58" value="判断价格" style="rhombus;whiteSpace=wrap;html=1;rounded=1;" vertex="1" parent="WIyWlLk6GJQsqaUBKTNV-1">
          <mxGeometry x="1124" y="2080" width="100" height="80" as="geometry" />
        </mxCell>
        <mxCell id="V34Z-jl5als5_vUv9P9E-59" value="刷仓成功&lt;br&gt;直接回填" style="whiteSpace=wrap;html=1;rounded=1;fillColor=#d5e8d4;strokeColor=#82b366;" vertex="1" parent="WIyWlLk6GJQsqaUBKTNV-1">
          <mxGeometry x="1034" y="2260" width="120" height="60" as="geometry" />
        </mxCell>
        <mxCell id="V34Z-jl5als5_vUv9P9E-60" value="小于原价" style="edgeStyle=orthogonalEdgeStyle;rounded=0;orthogonalLoop=1;jettySize=auto;html=1;endArrow=none;" edge="1" parent="WIyWlLk6GJQsqaUBKTNV-1" source="V34Z-jl5als5_vUv9P9E-58" target="V34Z-jl5als5_vUv9P9E-59">
          <mxGeometry relative="1" as="geometry">
            <mxPoint x="1131" y="2510" as="targetPoint" />
            <mxPoint x="1107.5" y="2230" as="sourcePoint" />
          </mxGeometry>
        </mxCell>
        <mxCell id="V34Z-jl5als5_vUv9P9E-61" value="" style="edgeStyle=orthogonalEdgeStyle;rounded=0;orthogonalLoop=1;jettySize=auto;html=1;exitX=0.5;exitY=1;exitDx=0;exitDy=0;" edge="1" parent="WIyWlLk6GJQsqaUBKTNV-1" target="V34Z-jl5als5_vUv9P9E-63" source="V34Z-jl5als5_vUv9P9E-58">
          <mxGeometry relative="1" as="geometry">
            <mxPoint x="1234" y="2310" as="sourcePoint" />
          </mxGeometry>
        </mxCell>
        <mxCell id="V34Z-jl5als5_vUv9P9E-62" value="大于等于原价" style="edgeLabel;html=1;align=center;verticalAlign=middle;resizable=0;points=[];" vertex="1" connectable="0" parent="V34Z-jl5als5_vUv9P9E-61">
          <mxGeometry x="0.3338" relative="1" as="geometry">
            <mxPoint y="-23" as="offset" />
          </mxGeometry>
        </mxCell>
        <mxCell id="V34Z-jl5als5_vUv9P9E-63" value="刷仓失败&lt;br&gt;超时不可退票&lt;br&gt;直接回填" style="whiteSpace=wrap;html=1;rounded=1;fillColor=#dae8fc;strokeColor=#6c8ebf;" vertex="1" parent="WIyWlLk6GJQsqaUBKTNV-1">
          <mxGeometry x="1184" y="2260" width="120" height="60" as="geometry" />
        </mxCell>
        <mxCell id="V34Z-jl5als5_vUv9P9E-64" value="" style="edgeStyle=orthogonalEdgeStyle;rounded=0;orthogonalLoop=1;jettySize=auto;html=1;" edge="1" parent="WIyWlLk6GJQsqaUBKTNV-1" target="V34Z-jl5als5_vUv9P9E-66" source="V34Z-jl5als5_vUv9P9E-59">
          <mxGeometry relative="1" as="geometry">
            <mxPoint x="1107" y="2400" as="sourcePoint" />
          </mxGeometry>
        </mxCell>
        <mxCell id="V34Z-jl5als5_vUv9P9E-65" value="" style="edgeStyle=orthogonalEdgeStyle;rounded=0;orthogonalLoop=1;jettySize=auto;html=1;" edge="1" parent="WIyWlLk6GJQsqaUBKTNV-1" source="V34Z-jl5als5_vUv9P9E-66" target="V34Z-jl5als5_vUv9P9E-67">
          <mxGeometry relative="1" as="geometry" />
        </mxCell>
        <mxCell id="V34Z-jl5als5_vUv9P9E-66" value="支付" style="whiteSpace=wrap;html=1;" vertex="1" parent="WIyWlLk6GJQsqaUBKTNV-1">
          <mxGeometry x="1034" y="2440" width="120" height="60" as="geometry" />
        </mxCell>
        <mxCell id="V34Z-jl5als5_vUv9P9E-67" value="退票" style="whiteSpace=wrap;html=1;" vertex="1" parent="WIyWlLk6GJQsqaUBKTNV-1">
          <mxGeometry x="1034" y="2550" width="120" height="60" as="geometry" />
        </mxCell>
        <mxCell id="V34Z-jl5als5_vUv9P9E-73" value="判断价格" style="rhombus;whiteSpace=wrap;html=1;rounded=1;" vertex="1" parent="WIyWlLk6GJQsqaUBKTNV-1">
          <mxGeometry x="1454" y="2090" width="100" height="80" as="geometry" />
        </mxCell>
        <mxCell id="V34Z-jl5als5_vUv9P9E-74" value="刷仓成功&lt;br&gt;不可退票&lt;br&gt;直接回填" style="whiteSpace=wrap;html=1;rounded=1;fillColor=#d5e8d4;strokeColor=#82b366;" vertex="1" parent="WIyWlLk6GJQsqaUBKTNV-1">
          <mxGeometry x="1374" y="2260" width="120" height="60" as="geometry" />
        </mxCell>
        <mxCell id="V34Z-jl5als5_vUv9P9E-75" value="小于等于原价" style="edgeStyle=orthogonalEdgeStyle;rounded=0;orthogonalLoop=1;jettySize=auto;html=1;endArrow=none;exitX=0;exitY=0.5;exitDx=0;exitDy=0;" edge="1" parent="WIyWlLk6GJQsqaUBKTNV-1" source="V34Z-jl5als5_vUv9P9E-73" target="V34Z-jl5als5_vUv9P9E-74">
          <mxGeometry relative="1" as="geometry">
            <mxPoint x="1371" y="2810" as="targetPoint" />
            <mxPoint x="1347.5" y="2530" as="sourcePoint" />
          </mxGeometry>
        </mxCell>
        <mxCell id="V34Z-jl5als5_vUv9P9E-76" value="" style="edgeStyle=orthogonalEdgeStyle;rounded=0;orthogonalLoop=1;jettySize=auto;html=1;exitX=1;exitY=0.5;exitDx=0;exitDy=0;" edge="1" parent="WIyWlLk6GJQsqaUBKTNV-1" source="V34Z-jl5als5_vUv9P9E-73" target="V34Z-jl5als5_vUv9P9E-78">
          <mxGeometry relative="1" as="geometry">
            <mxPoint x="1474" y="2610" as="sourcePoint" />
          </mxGeometry>
        </mxCell>
        <mxCell id="V34Z-jl5als5_vUv9P9E-77" value="大于原价" style="edgeLabel;html=1;align=center;verticalAlign=middle;resizable=0;points=[];" vertex="1" connectable="0" parent="V34Z-jl5als5_vUv9P9E-76">
          <mxGeometry x="0.3338" relative="1" as="geometry">
            <mxPoint y="-23" as="offset" />
          </mxGeometry>
        </mxCell>
        <mxCell id="V34Z-jl5als5_vUv9P9E-78" value="支付失败" style="whiteSpace=wrap;html=1;rounded=1;fillColor=#f8cecc;strokeColor=#b85450;" vertex="1" parent="WIyWlLk6GJQsqaUBKTNV-1">
          <mxGeometry x="1534" y="2260" width="120" height="60" as="geometry" />
        </mxCell>
      </root>
    </mxGraphModel>
  </diagram>
</mxfile>
